# xmcd
#
# Track frame offsets: 
#        150
#        23072
#        41072
#        61270
#        83050
#        105284
#        130438
#        149950
#        167013
#        186924
#        209740
#        223519
#        245656
#        268269
#
# Disc length: 3894 seconds
#
# Revision: 0
# Processed by: cddbd v1.5.2PL0 Copyright (c) Steve Scherf et al.
# Submitted via: ExactAudioCopyFreeDBPlugin 1.0
#
DISCID=da0f340e
DTITLE=上原れな - Emergence
DYEAR=2014
DGENRE=JPop
TTITLE0=届かない恋'13
TTITLE1=いくつもの未来
TTITLE2=summer rain
TTITLE3=Happy Ending
TTITLE4=Answer
TTITLE5=closing'13
TTITLE6=イミテーションワールド
TTITLE7=Sparkling Heart
TTITLE8=BUTTERFLY
TTITLE9=ただひとつの星
TTITLE10=手紙 ～10年後の私へ～
TTITLE11=Until -from Hispania-
TTITLE12=After All ～綴る想い～'13
TTITLE13=さよならのこと
EXTD=
EXTT0=
EXTT1=
EXTT2=
EXTT3=
EXTT4=
EXTT5=
EXTT6=
EXTT7=
EXTT8=
EXTT9=
EXTT10=
EXTT11=
EXTT12=
EXTT13=
PLAYORDER=
